HIERARCHY
ROOT Hips
{
    OFFSET   0.000000   0.000000   0.000000
    CHANNELS 6 Xposition Yposition Zposition Zrotation Xrotation Yrotation
    JOINT Chest
    {
        OFFSET   0.000000   8.007230   0.000000
        CHANNELS 3 Zrotation Xrotation Yrotation
        JOINT Chest2
        {
            OFFSET   0.000000  22.077100   0.000000
            CHANNELS 3 Zrotation Xrotation Yrotation
            JOINT Neck
            {
                OFFSET   0.000000  23.254800   0.000000
                CHANNELS 3 Zrotation Xrotation Yrotation
                JOINT Head
                {
                    OFFSET   0.000010  14.370000   1.956600
                    CHANNELS 3 Zrotation Xrotation Yrotation
                    End Site
                    {
                        OFFSET   0.000000  19.566000   0.000000
                    }
                }
            }
            JOINT LeftCollar
            {
                OFFSET   3.911900  19.017000  -0.467062
                CHANNELS 3 Zrotation Xrotation Yrotation
                JOINT LeftShoulder
                {
                    OFFSET  10.383700   0.000000   0.000000
                    CHANNELS 3 Zrotation Xrotation Yrotation
                    JOINT LeftElbow
                    {
                        OFFSET  26.662100   0.001193   0.000835
                        CHANNELS 3 Zrotation Xrotation Yrotation
                        JOINT LeftWrist
                        {
                            OFFSET  28.869000  -0.000058  -0.000075
                            CHANNELS 3 Zrotation Xrotation Yrotation
                            JOINT LeftFinger0
                            {
                                OFFSET   2.044660  -2.323460   3.252850
                                CHANNELS 3 Zrotation Xrotation Yrotation
                                JOINT LeftFinger01
                                {
                                    OFFSET   3.088130   0.000000   0.000000
                                    CHANNELS 3 Zrotation Xrotation Yrotation
                                    JOINT LeftFinger02
                                    {
                                        OFFSET   2.639450   0.000000   0.000000
                                        CHANNELS 3 Zrotation Xrotation Yrotation
                                        End Site
                                        {
                                            OFFSET   2.582190   0.000000   0.000000
                                        }
                                    }
                                }
                            }
                            JOINT LeftFinger1
                            {
                                OFFSET   8.364480   0.000000   3.252850
                                CHANNELS 3 Zrotation Xrotation Yrotation
                                JOINT LeftFinger11
                                {
                                    OFFSET   4.646920   0.000000   0.000000
                                    CHANNELS 3 Zrotation Xrotation Yrotation
                                    JOINT LeftFinger12
                                    {
                                        OFFSET   2.323460   0.000000   0.000000
                                        CHANNELS 3 Zrotation Xrotation Yrotation
                                        End Site
                                        {
                                            OFFSET   2.273050   0.000000   0.000000
                                        }
                                    }
                                }
                            }
                            JOINT LeftFinger2
                            {
                                OFFSET   8.364490   0.000016   1.078090
                                CHANNELS 3 Zrotation Xrotation Yrotation
                                JOINT LeftFinger21
                                {
                                    OFFSET   5.111620   0.000000   0.000000
                                    CHANNELS 3 Zrotation Xrotation Yrotation
                                    JOINT LeftFinger22
                                    {
                                        OFFSET   2.788150   0.000012   0.000000
                                        CHANNELS 3 Zrotation Xrotation Yrotation
                                        End Site
                                        {
                                            OFFSET   2.727660   0.000000   0.000000
                                        }
                                    }
                                }
                            }
                            JOINT LeftFinger3
                            {
                                OFFSET   7.899780   0.000014  -1.078090
                                CHANNELS 3 Zrotation Xrotation Yrotation
                                JOINT LeftFinger31
                                {
                                    OFFSET   4.646930   0.000000   0.000000
                                    CHANNELS 3 Zrotation Xrotation Yrotation
                                    JOINT LeftFinger32
                                    {
                                        OFFSET   2.323470   0.000000   0.000000
                                        CHANNELS 3 Zrotation Xrotation Yrotation
                                        End Site
                                        {
                                            OFFSET   2.273050   0.000000   0.000000
                                        }
                                    }
                                }
                            }
                            JOINT LeftFinger4
                            {
                                OFFSET   7.435090   0.000000  -3.252850
                                CHANNELS 3 Zrotation Xrotation Yrotation
                                JOINT LeftFinger41
                                {
                                    OFFSET   3.717550   0.000000   0.000000
                                    CHANNELS 3 Zrotation Xrotation Yrotation
                                    JOINT LeftFinger42
                                    {
                                        OFFSET   1.858770   0.000000   0.000000
                                        CHANNELS 3 Zrotation Xrotation Yrotation
                                        End Site
                                        {
                                            OFFSET   1.818440   0.000000   0.000000
                                        }
                                    }
                                }
                            }
                        }
                    }
                }
            }
            JOINT RightCollar
            {
                OFFSET  -3.911900  19.017000  -0.467063
                CHANNELS 3 Zrotation Xrotation Yrotation
                JOINT RightShoulder
                {
                    OFFSET -10.383700   0.000023   0.000000
                    CHANNELS 3 Zrotation Xrotation Yrotation
                    JOINT RightElbow
                    {
                        OFFSET -26.662100   0.001246   0.001011
                        CHANNELS 3 Zrotation Xrotation Yrotation
                        JOINT RightWrist
                        {
                            OFFSET -28.869000  -0.000026  -0.000078
                            CHANNELS 3 Zrotation Xrotation Yrotation
                            JOINT RightFinger0
                            {
                                OFFSET  -2.044660  -2.323490   3.252850
                                CHANNELS 3 Zrotation Xrotation Yrotation
                                JOINT RightFinger01
                                {
                                    OFFSET  -3.088130   0.000000   0.000000
                                    CHANNELS 3 Zrotation Xrotation Yrotation
                                    JOINT RightFinger02
                                    {
                                        OFFSET  -2.639460   0.000000   0.000000
                                        CHANNELS 3 Zrotation Xrotation Yrotation
                                        End Site
                                        {
                                            OFFSET  -2.582190   0.000000   0.000000
                                        }
                                    }
                                }
                            }
                            JOINT RightFinger1
                            {
                                OFFSET  -8.364480   0.000000   3.252850
                                CHANNELS 3 Zrotation Xrotation Yrotation
                                JOINT RightFinger11
                                {
                                    OFFSET  -4.646920   0.000000   0.000000
                                    CHANNELS 3 Zrotation Xrotation Yrotation
                                    JOINT RightFinger12
                                    {
                                        OFFSET  -2.323470   0.000000   0.000000
                                        CHANNELS 3 Zrotation Xrotation Yrotation
                                        End Site
                                        {
                                            OFFSET  -2.273050   0.000000   0.000000
                                        }
                                    }
                                }
                            }
                            JOINT RightFinger2
                            {
                                OFFSET  -8.364480   0.000000   1.078090
                                CHANNELS 3 Zrotation Xrotation Yrotation
                                JOINT RightFinger21
                                {
                                    OFFSET  -5.111620   0.000000   0.000000
                                    CHANNELS 3 Zrotation Xrotation Yrotation
                                    JOINT RightFinger22
                                    {
                                        OFFSET  -2.788160   0.000000   0.000000
                                        CHANNELS 3 Zrotation Xrotation Yrotation
                                        End Site
                                        {
                                            OFFSET  -2.727660   0.000000   0.000000
                                        }
                                    }
                                }
                            }
                            JOINT RightFinger3
                            {
                                OFFSET  -7.899780   0.000000  -1.078090
                                CHANNELS 3 Zrotation Xrotation Yrotation
                                JOINT RightFinger31
                                {
                                    OFFSET  -4.646930   0.000000   0.000000
                                    CHANNELS 3 Zrotation Xrotation Yrotation
                                    JOINT RightFinger32
                                    {
                                        OFFSET  -2.323470   0.000000   0.000000
                                        CHANNELS 3 Zrotation Xrotation Yrotation
                                        End Site
                                        {
                                            OFFSET  -2.273050   0.000000   0.000000
                                        }
                                    }
                                }
                            }
                            JOINT RightFinger4
                            {
                                OFFSET  -7.435090   0.000000  -3.252850
                                CHANNELS 3 Zrotation Xrotation Yrotation
                                JOINT RightFinger41
                                {
                                    OFFSET  -3.717550   0.000000   0.000000
                                    CHANNELS 3 Zrotation Xrotation Yrotation
                                    JOINT RightFinger42
                                    {
                                        OFFSET  -1.858760   0.000000   0.000000
                                        CHANNELS 3 Zrotation Xrotation Yrotation
                                        End Site
                                        {
                                            OFFSET  -1.818440   0.000000   0.000000
                                        }
                                    }
                                }
                            }
                        }
                    }
                }
            }
        }
    }
    JOINT LeftHip
    {
        OFFSET   9.783010   0.000000   0.000000
        CHANNELS 3 Zrotation Xrotation Yrotation
        JOINT LeftKnee
        {
            OFFSET   0.000073 -41.789100   0.001749
            CHANNELS 3 Zrotation Xrotation Yrotation
            JOINT LeftAnkle
            {
                OFFSET   0.000111 -41.133200  -0.000179
                CHANNELS 3 Zrotation Xrotation Yrotation
                JOINT LeftToe
                {
                    OFFSET   0.000000  -6.358960  14.674500
                    CHANNELS 3 Zrotation Xrotation Yrotation
                    End Site
                    {
                        OFFSET   0.000000   0.000000   3.913200
                    }
                }
            }
        }
    }
    JOINT RightHip
    {
        OFFSET  -9.783010   0.000000   0.000000
        CHANNELS 3 Zrotation Xrotation Yrotation
        JOINT RightKnee
        {
            OFFSET   0.000424 -41.789200   0.005205
            CHANNELS 3 Zrotation Xrotation Yrotation
            JOINT RightAnkle
            {
                OFFSET   0.000000 -41.133200  -0.000155
                CHANNELS 3 Zrotation Xrotation Yrotation
                JOINT RightToe
                {
                    OFFSET   0.000000  -6.358960  14.674500
                    CHANNELS 3 Zrotation Xrotation Yrotation
                    End Site
                    {
                        OFFSET   0.000000   0.000000   3.913200
                    }
                }
            }
        }
    }
}
MOTION
Frames: 6
Frame Time:   0.016667
  0.245483  89.538200  -2.049090  -7.243200 -15.594600  -9.862940   0.438864  10.550600   4.351370   0.046783  21.103600   8.850640  -1.513370   0.906600   0.027376  -2.487960   1.834160  -1.565320  -8.851700  -8.591110  -2.113620 -68.988200  21.581900  -1.656000  -1.927280  -7.165100 -17.475000  16.587000 -12.841500   8.201480  47.565800  44.766500 -79.037400 -31.832400  -0.002892   0.002649 -10.916200  -0.002584  -0.001491 -37.776800   5.903080  -7.558840 -31.227600   0.013208  -0.001780 -21.859300   0.007328   0.000531 -31.194600  -2.268100   3.739660 -46.903000   0.010072   0.001183 -31.237400   0.001545   0.012260 -31.296100  -2.274730   3.735630 -47.055400   0.009880   0.000182 -31.338900   0.003631   0.010718 -40.503700  -2.843330   3.323650 -60.879400  -0.008062   0.003210 -40.545700  -0.000432  -0.003496  11.763900  -6.483060  13.890000  51.647200   9.209590  50.085800 -14.193700 -48.683200 101.138000  85.102000 -19.307000  64.323100 -49.542200  53.162400  65.972200  44.192600  -0.234026   0.042676  21.829400  -0.182707   0.108687  46.520800  -2.494620  -2.518020  38.131700   0.026663   0.011793  28.166700   0.027483   0.000236  64.917000  -3.450520  -1.614110  64.973800   0.043650   0.003871  48.730300   0.023810  -0.022052  78.248300  -4.838760  -0.979552  78.291500   0.034237  -0.016363  58.718600   0.003181  -0.028003  79.677900  -9.823300  -1.776440 110.000000  -0.002187   0.012116  79.881300  -0.001882   0.002841   3.307530  19.030200   5.258710   0.734297   0.209086   6.823780  -0.561208  -4.263750   4.806110  -0.000000   0.000000   0.000000   6.475080  14.000200  -2.953810  -3.027270   7.167050  -7.848990   1.739680  -5.360110   7.055610  -0.000000   0.000000   0.000000
  0.268902  89.523700  -2.065020  -7.232860 -15.553400  -9.866900   0.434313  10.549700   4.361860   0.035506  21.101000   8.873310  -1.492250   0.888384   0.027063  -2.453910   1.797690  -1.563910  -8.873590  -8.606260  -2.157120 -68.881100  21.795500  -1.795510  -1.916890  -7.248370 -17.516100  16.583200 -12.801200   8.191010  47.531700  44.697700 -78.899900 -31.807400  -0.002888   0.002610 -10.903700  -0.002580  -0.001489 -37.728700   5.894460  -7.558990 -31.187800   0.013219  -0.001721 -21.831400   0.007268   0.000585 -31.166300  -2.266500   3.739510 -46.860600   0.010092   0.001241 -31.209100   0.001496   0.012254 -31.269900  -2.273170   3.735450 -47.016000   0.009909   0.000251 -31.312600   0.003585   0.010711 -40.464500  -2.841140   3.325590 -60.820500  -0.008054   0.003208 -40.506500  -0.000407  -0.003455  11.773300  -6.464200  13.895300  51.615600   9.431940  49.956400 -14.287100 -48.681800 101.493000  84.362900 -23.081700  62.192300 -55.779900  55.399800  67.625900  41.192300  -0.308451   0.054666  19.085600  -0.242079   0.118216  42.652300  -4.433510  -3.665990  34.983800  -0.003006   0.103862  25.136200   0.040669   0.092017  61.722200  -3.528270  -1.855130  61.781200   0.012540   0.012300  46.335900   0.009417  -0.000076  75.814600  -4.904950  -1.222390  75.890400   0.024142  -0.009357  56.917800   0.003592  -0.018734  78.165700  -9.847990  -2.047390 110.000000  -0.002212   0.012284  79.631200  -0.001882   0.002821   3.285740  18.971400   5.243730   0.734678   0.212796   6.835340  -0.552930  -4.259330   4.819450  -0.000000   0.000000  -0.000000   6.447900  13.945900  -2.975280  -3.025910   7.168320  -7.826220   1.747150  -5.345620   7.067480   0.000000   0.000000   0.000000
  0.292007  89.503600  -2.086590  -7.224990 -15.519700  -9.885900   0.428215  10.544500   4.372290   0.021338  21.090400   8.895480  -1.460780   0.873070   0.026758  -2.401550   1.767090  -1.562510  -8.883150  -8.608330  -2.178850 -68.786600  21.998400  -1.962530  -1.891650  -7.338310 -17.552900  16.610700 -12.790700   8.189360  47.463500  44.601800 -78.728700 -31.778800  -0.002883   0.002572 -10.889400  -0.002576  -0.001488 -37.695800   5.885840  -7.559140 -31.160500   0.013231  -0.001663 -21.812300   0.007208   0.000639 -31.147900  -2.266000   3.739450 -46.832800   0.010112   0.001298 -31.190600   0.001447   0.012248 -31.252500  -2.272690   3.735380 -46.989800   0.009939   0.000315 -31.295200   0.003537   0.010709 -40.437500  -2.840460   3.327530 -60.780000  -0.008046   0.003206 -40.479500  -0.000381  -0.003414  11.780900  -6.393830  13.896800  51.635900   9.554800  49.855200 -14.227400 -48.635200 101.798000  80.881000 -31.563200  57.321800 -63.480600  57.299700  72.358800  37.984500  -0.350649   0.060820  16.179000  -0.275673   0.119578  40.540800  -5.827980  -4.389670  33.291300  -0.046663   0.221800  23.404000   0.047206   0.209805  59.981200  -3.539320  -1.914170  60.033600  -0.034726   0.040686  45.025200   0.002996   0.040524  73.954900  -4.996290  -1.421030  74.015100   0.007385   0.006196  55.511300   0.006464  -0.001753  77.507400  -9.904420  -2.169140 110.000000  -0.002235   0.012451  79.494400  -0.001883   0.002798   3.255210  18.924300   5.230030   0.735588   0.214875   6.856890  -0.539712  -4.252680   4.842130   0.000000   0.000000   0.000000   6.418770  13.892400  -3.005950  -3.029190   7.175070  -7.788600   1.757420  -5.333940   7.092690   0.000000   0.000000   0.000000
  0.320944  89.482200  -2.115370  -7.223410 -15.494600  -9.921480   0.425298  10.534800   4.365840   0.017832  21.071200   8.882170  -1.440430   0.865972   0.026462  -2.366510   1.752710  -1.496100  -8.875200  -8.570090  -2.165680 -68.733200  22.140200  -2.127400  -1.842820  -7.414640 -17.609100  16.719400 -12.883200   8.228860  47.426800  44.557100 -78.694100 -31.746100  -0.002892   0.002547 -10.873100  -0.002580  -0.001504 -37.698000   5.890830  -7.565270 -31.163100   0.013245  -0.001605 -21.814200   0.007149   0.000694 -31.157800  -2.264980   3.739310 -46.847800   0.010136   0.001354 -31.200600   0.001398   0.012242 -31.262900  -2.271690   3.735220 -47.005500   0.009970   0.000379 -31.305600   0.003491   0.010707 -40.449100  -2.839020   3.323500 -60.797200  -0.008036   0.003204 -40.491000  -0.000354  -0.003372  11.777700  -6.247750  13.902800  51.668500   9.545580  49.891600 -14.168200 -48.182800 101.784000  72.367700 -42.955200  49.532400 -70.305300  58.178100  77.845300  34.819400  -0.285204   0.043361  13.504600  -0.228518   0.094161  41.112900  -3.515880  -1.799350  33.449100  -0.072951   0.251981  23.601900   0.045624   0.240145  60.146400  -3.211810  -1.643280  60.173500  -0.068239   0.112085  45.130000   0.022866   0.093039  73.112700  -5.030150  -1.505900  73.176800  -0.007080   0.029790  54.882600   0.015079   0.017094  78.792900 -10.003600  -1.941180 110.000000  -0.002253   0.012614  79.773100  -0.001896   0.002767   3.222430  18.883000   5.228830   0.734996   0.224228   6.878800  -0.524111  -4.250580   4.870280   0.000000   0.000000   0.000000   6.385750  13.846900  -3.020030  -3.033770   7.192120  -7.757840   1.771720  -5.325710   7.124660  -0.000000   0.000000  -0.000000
  0.353091  89.461300  -2.146080  -7.231750 -15.482200  -9.974900   0.428107  10.516500   4.341950   0.029537  21.034700   8.832170  -1.430450   0.864176   0.026169  -2.351940   1.749040  -1.343260  -8.851180  -8.489260  -2.124380 -68.718400  22.203600  -2.265950  -1.781730  -7.463970 -17.683200  16.858700 -13.041200   8.289370  47.424800  44.539200 -78.693700 -31.726700  -0.002902   0.002522 -10.863400  -0.002586  -0.001519 -37.719900   5.902010  -7.573240 -31.181600   0.013259  -0.001549 -21.827100   0.007089   0.000749 -31.185700  -2.264410   3.739170 -46.889800   0.010160   0.001410 -31.228600   0.001349   0.012235 -31.291100  -2.271140   3.735060 -47.047900   0.010003   0.000444 -31.333900   0.003445   0.010705 -40.485600  -2.838230   3.317330 -60.851700  -0.008025   0.003201 -40.527300  -0.000327  -0.003330  11.756000  -6.069390  13.915600  51.633500   9.493400  50.148800 -14.344400 -47.362700 101.504000  56.623200 -55.853900  36.882800 -74.399500  58.276100  81.316600  32.287200  -0.167557   0.012637  11.436900  -0.142417   0.049792  42.838900   0.879725   2.310270  34.553100  -0.085250   0.256292  24.987000   0.034550   0.244479  61.159500  -2.567430  -1.171530  61.151600  -0.085596   0.163528  45.863600   0.050542   0.126932  72.934900  -5.039000  -1.522850  73.000000  -0.019052   0.052016  54.749900   0.024162   0.033696  81.407000 -10.072700  -1.480870 110.000000  -0.002271   0.012773  80.051800  -0.001914   0.002723   3.194170  18.862800   5.228890   0.734343   0.230853   6.903650  -0.505498  -4.245680   4.903040   0.000000   0.000000   0.000000   6.365700  13.812000  -3.025030  -3.043860   7.216590  -7.730270   1.788210  -5.318960   7.161650  -0.000000   0.000000   0.000000
  0.389925  89.443700  -2.175270  -7.255500 -15.488400 -10.049700   0.441273  10.482900   4.289030   0.069221  20.969100   8.719760  -1.439270   0.904072   0.025874  -2.366460   1.829510  -1.105970  -8.804090  -8.382280  -2.025200 -68.766400  22.188000  -2.340190  -1.718330  -7.473760 -17.790000  16.984900 -13.205300   8.333530  47.434700  44.576400 -78.818900 -31.728400  -0.002898   0.002479 -10.864200  -0.002591  -0.001504 -37.784500   5.918830  -7.576220 -31.235100   0.013265  -0.001494 -21.864500   0.007029   0.000803 -31.237800  -2.266030   3.739050 -46.968000   0.010185   0.001466 -31.280700   0.001302   0.012228 -31.341900  -2.272740   3.734920 -47.124300   0.010036   0.000508 -31.384800   0.003400   0.010703 -40.557800  -2.840260   3.312810 -60.960000  -0.008014   0.003199 -40.599400  -0.000301  -0.003287  11.700800  -5.880420  13.951500  51.188900   9.385200  50.797900 -14.815100 -46.515500 100.377000  25.722700 -66.206100  11.116900 -70.779400  56.818500  78.537100  31.287100  -0.024188  -0.022966  10.629100  -0.033792  -0.000606  47.102100   6.799520   5.920750  38.483800  -0.076726   0.138047  28.634900  -0.004918   0.141631  64.491000  -1.793640  -0.713082  64.469100  -0.076409   0.161946  48.351800   0.061898   0.121695  73.453100  -4.956440  -1.456770  73.515300  -0.024586   0.061412  55.136400   0.028499   0.040578  85.032800 -10.071900  -0.843948 110.000000  -0.002296   0.012926  80.025900  -0.001920   0.002656   3.170530  18.906400   5.247820   0.734192   0.163721   6.928630  -0.483988  -4.207110   4.937390   0.000000   0.000000   0.000000   6.360260  13.796400  -2.996190  -3.061300   7.246400  -7.714720   1.809140  -5.312650   7.196660  -0.000000   0.000000   0.000000
